<svg width="25" height="24" viewBox="0 0 25 24" fill="none" xmlns="http://www.w3.org/2000/svg">
<path fill-rule="evenodd" clip-rule="evenodd" d="M2.2627 3C2.81498 3 3.2627 3.44772 3.2627 4V18C3.2627 18.5523 3.71041 19 4.2627 19H22.2627C22.815 19 23.2627 19.4477 23.2627 20C23.2627 20.5523 22.815 21 22.2627 21H4.2627C2.60584 21 1.2627 19.6569 1.2627 18V4C1.2627 3.44772 1.71041 3 2.2627 3Z" fill="#B1B5C4"/>
<path d="M18.2627 5C17.7104 5 17.2627 5.44771 17.2627 6V16C17.2627 16.5523 17.7104 17 18.2627 17C18.815 17 19.2627 16.5523 19.2627 16V6C19.2627 5.44772 18.815 5 18.2627 5Z" fill="#B1B5C4"/>
<path d="M10.2627 7C9.71041 7 9.2627 7.44772 9.2627 8V16C9.2627 16.5523 9.71041 17 10.2627 17C10.815 17 11.2627 16.5523 11.2627 16V8C11.2627 7.44772 10.815 7 10.2627 7Z" fill="#B1B5C4"/>
<path d="M6.2627 13C5.71041 13 5.2627 13.4477 5.2627 14V16C5.2627 16.5523 5.71041 17 6.2627 17C6.81498 17 7.2627 16.5523 7.2627 16V14C7.2627 13.4477 6.81498 13 6.2627 13Z" fill="#B1B5C4"/>
<path d="M13.2627 10C13.2627 9.44771 13.7104 9 14.2627 9C14.815 9 15.2627 9.44771 15.2627 10V16C15.2627 16.5523 14.815 17 14.2627 17C13.7104 17 13.2627 16.5523 13.2627 16V10Z" fill="#B1B5C4"/>
</svg>
