<svg width="21" height="20" viewBox="0 0 21 20" fill="none" xmlns="http://www.w3.org/2000/svg">
<path d="M1.33334 5C1.33334 3.61929 2.45262 2.5 3.83334 2.5H17.1667C18.5474 2.5 19.6667 3.61929 19.6667 5V5C19.6667 5.46024 19.2936 5.83333 18.8333 5.83333H15.5C13.1988 5.83333 11.3333 7.69881 11.3333 10C11.3333 12.3012 13.1988 14.1667 15.5 14.1667H18.8333C19.2936 14.1667 19.6667 14.5398 19.6667 15V15C19.6667 16.3807 18.5474 17.5 17.1667 17.5H3.83334C2.45262 17.5 1.33334 16.3807 1.33334 15V5Z" fill="#A1B2C8"/>
<path fill-rule="evenodd" clip-rule="evenodd" d="M15.5 7.5H18.8333C19.2936 7.5 19.6667 7.8731 19.6667 8.33333V11.6667C19.6667 12.1269 19.2936 12.5 18.8333 12.5H15.5C14.1193 12.5 13 11.3807 13 10C13 8.61929 14.1193 7.5 15.5 7.5ZM15.5 10.8333C15.9602 10.8333 16.3333 10.4602 16.3333 10C16.3333 9.53976 15.9602 9.16667 15.5 9.16667C15.0398 9.16667 14.6667 9.53976 14.6667 10C14.6667 10.4602 15.0398 10.8333 15.5 10.8333Z" fill="#A1B2C8"/>
</svg>
